<svg xmlns:ev="http://www.w3.org/2001/xml-events" height="1642" xmlns:xlink="http://www.w3.org/1999/xlink" xmlns="http://www.w3.org/2000/svg" width="1354" viewBox="0 0 1354 1642"><style type="text/css"><![CDATA[
.st2 {fill:#000000;font-family:Calibri;font-size:10pt}
.st4 {fill:#000000;font-family:Calibri;font-size:12pt}
.st1 {fill:#000000;font-family:Calibri;font-size:13pt}
.st5 {fill:#064783;font-family:隶书;font-size:10pt}
.st3 {font-size:9pt}
]]></style><defs><clipPath id="clip1"><path d="M57,76L114,38L57,0L0,38L57,76z"/></clipPath><linearGradient y1="0%" x2="100%" x1="0%" y2="0%" id="lg1"><stop offset="0" stop-color="#bcc8e5"/><stop offset="0.8" stop-color="#aabbdf"/><stop offset="1" stop-color="#7d9bd3"/></linearGradient><linearGradient y1="0%" x2="0%" x1="0%" y2="100%" id="lg2"><stop offset="0" stop-color="#bcc8e5"/><stop offset="0.8" stop-color="#aabbdf"/><stop offset="1" stop-color="#7d9bd3"/></linearGradient><clipPath id="clip2"><path d="M57,76L114,38L57,0L0,38L57,76z"/></clipPath><linearGradient y1="0%" x2="100%" x1="0%" y2="0%" id="lg3"><stop offset="0" stop-color="#bcc8e5"/><stop offset="0.8" stop-color="#aabbdf"/><stop offset="1" stop-color="#7d9bd3"/></linearGradient><linearGradient y1="0%" x2="0%" x1="0%" y2="100%" id="lg4"><stop offset="0" stop-color="#bcc8e5"/><stop offset="0.8" stop-color="#aabbdf"/><stop offset="1" stop-color="#7d9bd3"/></linearGradient><clipPath id="clip3"><path d="M57,76L114,38L57,0L0,38L57,76z"/></clipPath><linearGradient y1="0%" x2="100%" x1="0%" y2="0%" id="lg5"><stop offset="0" stop-color="#bcc8e5"/><stop offset="0.8" stop-color="#aabbdf"/><stop offset="1" stop-color="#7d9bd3"/></linearGradient><linearGradient y1="0%" x2="0%" x1="0%" y2="100%" id="lg6"><stop offset="0" stop-color="#bcc8e5"/><stop offset="0.8" stop-color="#aabbdf"/><stop offset="1" stop-color="#7d9bd3"/></linearGradient><clipPath id="clip4"><path d="M57,76L114,38L57,0L0,38L57,76z"/></clipPath><linearGradient y1="0%" x2="100%" x1="0%" y2="0%" id="lg7"><stop offset="0" stop-color="#bcc8e5"/><stop offset="0.8" stop-color="#aabbdf"/><stop offset="1" stop-color="#7d9bd3"/></linearGradient><linearGradient y1="0%" x2="0%" x1="0%" y2="100%" id="lg8"><stop offset="0" stop-color="#bcc8e5"/><stop offset="0.8" stop-color="#aabbdf"/><stop offset="1" stop-color="#7d9bd3"/></linearGradient><clipPath id="clip5"><path d="M57,76L114,38L57,0L0,38L57,76z"/></clipPath><linearGradient y1="0%" x2="100%" x1="0%" y2="0%" id="lg9"><stop offset="0" stop-color="#bcc8e5"/><stop offset="0.8" stop-color="#aabbdf"/><stop offset="1" stop-color="#7d9bd3"/></linearGradient><linearGradient y1="0%" x2="0%" x1="0%" y2="100%" id="lg10"><stop offset="0" stop-color="#bcc8e5"/><stop offset="0.8" stop-color="#aabbdf"/><stop offset="1" stop-color="#7d9bd3"/></linearGradient><clipPath id="clip6"><path d="M57,76L114,38L57,0L0,38L57,76z"/></clipPath><linearGradient y1="0%" x2="100%" x1="0%" y2="0%" id="lg11"><stop offset="0" stop-color="#bcc8e5"/><stop offset="0.8" stop-color="#aabbdf"/><stop offset="1" stop-color="#7d9bd3"/></linearGradient><linearGradient y1="0%" x2="0%" x1="0%" y2="100%" id="lg12"><stop offset="0" stop-color="#bcc8e5"/><stop offset="0.8" stop-color="#aabbdf"/><stop offset="1" stop-color="#7d9bd3"/></linearGradient><clipPath id="clip7"><path d="M57,76L114,38L57,0L0,38L57,76z"/></clipPath><linearGradient y1="0%" x2="100%" x1="0%" y2="0%" id="lg13"><stop offset="0" stop-color="#bcc8e5"/><stop offset="0.8" stop-color="#aabbdf"/><stop offset="1" stop-color="#7d9bd3"/></linearGradient><linearGradient y1="0%" x2="0%" x1="0%" y2="100%" id="lg14"><stop offset="0" stop-color="#bcc8e5"/><stop offset="0.8" stop-color="#aabbdf"/><stop offset="1" stop-color="#7d9bd3"/></linearGradient></defs><g transform="translate(5,5)" id="page1"><rect stroke="#808080" height="1632" x="0" y="0" width="1344" fill="#ffffff"/><g transform="translate(575.49,305)" id="table1"><g><path stroke="#6cb255" d="M0,0L184.6,0L184.6,43.5L0,43.5L0,0z" fill="#bfe1b7"/><text class="st1"><tspan x="74" y="26.3">users</tspan></text></g><g><path stroke="#6cb255" d="M0,43.5L92.3,43.5L92.3,182.5L0,182.5L0,43.5z" fill="#bfe1b7"/><text class="st2"><tspan x="19" y="67" class="st3">username</tspan><tspan x="20" y="81" class="st3">nickname</tspan><tspan x="31" y="95" class="st3">name</tspan><tspan x="37" y="109" class="st3">sex</tspan><tspan x="21" y="123" class="st3">birthdate</tspan><tspan x="30" y="137" class="st3">email</tspan><tspan x="24" y="151" class="st3">address</tspan><tspan x="20" y="165" class="st3">password</tspan></text></g><g><path stroke="#6cb255" d="M92.3,43.5L184.6,43.5L184.6,182.5L92.3,182.5L92.3,43.5z" fill="#bfe1b7"/><text class="st2"><tspan x="103.3" y="64">VARCHAR(32)</tspan><tspan x="103.3" y="79">VARCHAR(45)</tspan><tspan x="103.3" y="94">VARCHAR(20)</tspan><tspan x="106.3" y="109">VARCHAR(1)</tspan><tspan x="125.3" y="124">DATE</tspan><tspan x="103.3" y="139">VARCHAR(45)</tspan><tspan x="103.3" y="154">VARCHAR(45)</tspan><tspan x="103.3" y="169">VARCHAR(45)</tspan></text></g></g><g transform="translate(559.57,24)" id="table2"><g><path stroke="#6cb255" d="M0,0L216.4,0L216.4,29L0,29L0,0z" fill="#bfe1b7"/><text class="st1"><tspan x="84" y="19">friends</tspan></text></g><g><path stroke="#6cb255" d="M0,29L108.2,29L108.2,93L0,93L0,29z" fill="#bfe1b7"/><text class="st2"><tspan x="27" y="43" class="st3">username</tspan><tspan x="11" y="57" class="st3">friend_usernam</tspan><tspan x="51" y="71" class="st3">e</tspan><tspan x="39" y="85" class="st3">group</tspan></text></g><g><path stroke="#6cb255" d="M108.2,29L216.4,29L216.4,93L108.2,93L108.2,29z" fill="#bfe1b7"/><text class="st2"><tspan x="127.2" y="49.5">VARCHAR(32)</tspan><tspan x="127.2" y="64.5">VARCHAR(32)</tspan><tspan x="127.2" y="79.5">VARCHAR(45)</tspan></text></g></g><g transform="translate(570.01,597)" id="table3"><g><path stroke="#6cb255" d="M0,0L195.5,0L195.5,31.2L0,31.2L0,0z" fill="#bfe1b7"/><text class="st1"><tspan x="88" y="20.1">log</tspan></text></g><g><path stroke="#6cb255" d="M0,31.2L97.8,31.2L97.8,112.4L0,112.4L0,31.2z" fill="#bfe1b7"/><text class="st2"><tspan x="32" y="46.8" class="st3">log_id</tspan><tspan x="22" y="60.8" class="st3">username</tspan><tspan x="23" y="74.8" class="st3">last_date</tspan><tspan x="17" y="88.8" class="st3">log_content</tspan><tspan x="32" y="102.8" class="st3">public</tspan></text></g><g><path stroke="#6cb255" d="M97.8,31.2L195.5,31.2L195.5,112.4L97.8,112.4L97.8,31.2z" fill="#bfe1b7"/><text class="st2"><tspan x="127.8" y="46.8" class="st3">INT(11)</tspan><tspan x="112.8" y="60.8" class="st3">VARCHAR(32)</tspan><tspan x="113.8" y="74.8" class="st3">DATETIME(6)</tspan><tspan x="106.8" y="88.8" class="st3">VARCHAR(5000)</tspan><tspan x="118.8" y="102.8" class="st3">TINYINT(4)</tspan></text></g></g><g transform="translate(53.54,330.13)" id="table4"><g><path stroke="#6cb255" d="M0,0L204.4,0L204.4,34.3L0,34.3L0,0z" fill="#bfe1b7"/><text class="st4"><tspan x="31" y="21.6">education_experience</tspan></text></g><g><path stroke="#6cb255" d="M0,34.3L102.2,34.3L102.2,132.3L0,132.3L0,34.3z" fill="#bfe1b7"/><text class="st2"><tspan x="24" y="49.3">username</tspan><tspan x="38" y="64.3">level</tspan><tspan x="23" y="79.3">start_date</tspan><tspan x="26" y="94.3">end_date</tspan><tspan x="15" y="109.3">school_name</tspan><tspan x="33" y="124.3">degree</tspan></text></g><g><path stroke="#6cb255" d="M102.2,34.3L204.4,34.3L204.4,132.3L102.2,132.3L102.2,34.3z" fill="#bfe1b7"/><text class="st2"><tspan x="118.2" y="49.3">VARCHAR(32)</tspan><tspan x="118.2" y="64.3">VARCHAR(10)</tspan><tspan x="140.2" y="79.3">DATE</tspan><tspan x="140.2" y="94.3">DATE </tspan><tspan x="118.2" y="109.3">VARCHAR(45)</tspan><tspan x="118.2" y="124.3">VARCHAR(45)</tspan></text></g></g><g transform="translate(1040.84,323.75)" id="table5"><g><path stroke="#6cb255" d="M0,0L204.4,0L204.4,48.3L0,48.3L0,0z" fill="#bfe1b7"/><text class="st4"><tspan x="47" y="28.7">work_experience</tspan></text></g><g><path stroke="#6cb255" d="M0,48.3L102.2,48.3L102.2,145L0,145L0,48.3z" fill="#bfe1b7"/><text class="st2"><tspan x="24" y="70.2">username</tspan><tspan x="26" y="85.2">employer</tspan><tspan x="23" y="100.2">start_date</tspan><tspan x="26" y="115.2">end_date</tspan><tspan x="29" y="130.2">position</tspan></text></g><g><path stroke="#6cb255" d="M102.2,48.3L204.4,48.3L204.4,145L102.2,145L102.2,48.3z" fill="#bfe1b7"/><text class="st2"><tspan x="118.2" y="70.2">VARCHAR(32)</tspan><tspan x="118.2" y="85.2">VARCHAR(45)</tspan><tspan x="140.2" y="100.2">DATE</tspan><tspan x="140.2" y="115.2">DATE</tspan><tspan x="118.2" y="130.2">VARCHAR(45)</tspan></text></g></g><g transform="translate(1058.05,593.05)" id="table6"><g><path stroke="#6cb255" d="M0,0L232.4,0L232.4,28.3L0,28.3L0,0z" fill="#bfe1b7"/><text class="st4"><tspan x="100" y="18.7">reply</tspan></text></g><g><path stroke="#6cb255" d="M0,28.3L116.2,28.3L116.2,120.3L0,120.3L0,28.3z" fill="#bfe1b7"/><text class="st2"><tspan x="41" y="42.3" class="st3">log_id</tspan><tspan x="36" y="56.3" class="st3">reply_id</tspan><tspan x="29" y="70.3" class="st3">reply_date</tspan><tspan x="21" y="84.3" class="st3">reply_content</tspan><tspan x="31" y="98.3" class="st3">username</tspan><tspan x="11" y="112.3" class="st3">friend_username</tspan></text></g><g><path stroke="#6cb255" d="M116.2,28.3L232.4,28.3L232.4,120.3L116.2,120.3L116.2,28.3z" fill="#bfe1b7"/><text class="st2"><tspan x="155.2" y="42.3" class="st3">INT(11)</tspan><tspan x="155.2" y="56.3" class="st3">INT(11)</tspan><tspan x="141.2" y="70.3" class="st3">DATETIME(6)</tspan><tspan x="137.2" y="84.3" class="st3">VARCHAR(100)</tspan><tspan x="140.2" y="98.3" class="st3">VARCHAR(32)</tspan><tspan x="140.2" y="112.3" class="st3">VARCHAR(32)</tspan></text></g></g><g transform="translate(632.79,900)" id="table7"><g><path stroke="#6cb255" d="M0,0L204.4,0L204.4,29L0,29L0,0z" fill="#bfe1b7"/><text class="st1"><tspan x="75" y="19">commit</tspan></text></g><g><path stroke="#6cb255" d="M0,29L102.2,29L102.2,84.2L0,84.2L0,29z" fill="#bfe1b7"/><text class="st4"><tspan x="23" y="45.6" class="st3">commit_id</tspan><tspan x="34" y="59.6" class="st3">log_id</tspan><tspan x="24" y="73.6" class="st3">username</tspan></text></g><g><path stroke="#6cb255" d="M102.2,29L204.4,29L204.4,84.2L102.2,84.2L102.2,29z" fill="#bfe1b7"/><text class="st4"><tspan x="134.2" y="45.6" class="st3">INT(11)</tspan><tspan x="134.2" y="59.6" class="st3">INT(11)</tspan><tspan x="119.2" y="73.6" class="st3">VARCHAR(32)</tspan></text></g></g><g transform="translate(257.95,396.26)" id="shape8"><path stroke="#91ab3f" d="M19.6,0L317.5,0" stroke-width="1.5" fill="none"/><path stroke="#91ab3f" d="M0,4.9L9.8,0L0,-4.9M9.8,0L0,0M9.8,0C9.8,-2.7,12,-4.9,14.7,-4.9C17.4,-4.9,19.6,-2.7,19.6,0C19.6,2.7,17.4,4.9,14.7,4.9C12,4.9,9.8,2.7,9.8,0" stroke-width="1.5" stroke-linejoin="round" fill="none" stroke-linecap="round"/><path stroke="#91ab3f" d="M312.6,4.9L312.6,-4.9" stroke-width="1.5" stroke-linejoin="round" fill="none" stroke-linecap="round"/></g><g transform="translate(1040.84,396.26)" id="shape9"><path stroke="#91ab3f" d="M-19.6,0L-280.8,0" stroke-width="1.5" fill="none"/><path stroke="#91ab3f" d="M0,-4.9L-9.8,0L0,4.9M-9.8,0L0,0M-9.8,0C-9.8,2.7,-12,4.9,-14.7,4.9C-17.4,4.9,-19.6,2.7,-19.6,0C-19.6,-2.7,-17.4,-4.9,-14.7,-4.9C-12,-4.9,-9.8,-2.7,-9.8,0" stroke-width="1.5" stroke-linejoin="round" fill="none" stroke-linecap="round"/><path stroke="#91ab3f" d="M-275.9,-4.9L-275.9,4.9" stroke-width="1.5" stroke-linejoin="round" fill="none" stroke-linecap="round"/></g><g transform="translate(1058.05,653.22)" id="shape10"><path stroke="#91ab3f" d="M-19.6,0L-292.5,0" stroke-width="1.5" fill="none"/><path stroke="#91ab3f" d="M0,-4.9L-9.8,0L0,4.9M-9.8,0L0,0M-9.8,0C-9.8,2.7,-12,4.9,-14.7,4.9C-17.4,4.9,-19.6,2.7,-19.6,0C-19.6,-2.7,-17.4,-4.9,-14.7,-4.9C-12,-4.9,-9.8,-2.7,-9.8,0" stroke-width="1.5" stroke-linejoin="round" fill="none" stroke-linecap="round"/><path stroke="#91ab3f" d="M-287.6,-4.9L-287.6,4.9" stroke-width="1.5" stroke-linejoin="round" fill="none" stroke-linecap="round"/></g><g transform="translate(735,900)" id="shape11"><path stroke="#91ab3f" d="M0,-19.6L.4,-190.6" stroke-width="1.5" fill="none"/><path stroke="#91ab3f" d="M4.9,0L0,-9.8L-4.9,-0M0,-9.8L0,0M0,-9.8C-2.7,-9.8,-4.9,-12,-4.9,-14.7C-4.9,-17.4,-2.7,-19.6,0,-19.6C2.7,-19.6,4.9,-17.4,4.9,-14.7C4.9,-12,2.7,-9.8,0,-9.8" stroke-width="1.5" stroke-linejoin="round" fill="none" stroke-linecap="round"/><path stroke="#91ab3f" d="M5.3,-185.7L-4.5,-185.7" stroke-width="1.5" stroke-linejoin="round" fill="none" stroke-linecap="round"/></g><g transform="translate(667.77,597)" id="shape12"><path stroke="#91ab3f" d="M0,-19.6L0,-109.5" stroke-width="1.5" fill="none"/><path stroke="#91ab3f" d="M4.9,0L0,-9.8L-4.9,0M0,-9.8L0,0M0,-9.8C-2.7,-9.8,-4.9,-12,-4.9,-14.7C-4.9,-17.4,-2.7,-19.6,0,-19.6C2.7,-19.6,4.9,-17.4,4.9,-14.7C4.9,-12,2.7,-9.8,0,-9.8" stroke-width="1.5" stroke-linejoin="round" fill="none" stroke-linecap="round"/><path stroke="#91ab3f" d="M4.9,-104.6L-4.9,-104.6" stroke-width="1.5" stroke-linejoin="round" fill="none" stroke-linecap="round"/></g><g transform="translate(53.54,586.58)" id="table13"><g><path stroke="#6cb255" d="M0,0L242.5,0L242.5,35.3L0,35.3L0,0z" fill="#bfe1b7"/><text class="st1"><tspan x="103" y="22.1">share</tspan></text></g><g><path stroke="#6cb255" d="M0,35.3L121.3,35.3L121.3,133.3L0,133.3L0,35.3z" fill="#bfe1b7"/><text class="st2"><tspan x="13" y="50.3">sharer_username</tspan><tspan x="44" y="65.3">log_id</tspan><tspan x="27" y="80.3">comment_id</tspan><tspan x="31" y="95.3">share_time</tspan><tspan x="36" y="110.3">comment</tspan><tspan x="21" y="125.3">comment_time</tspan></text></g><g><path stroke="#6cb255" d="M121.3,35.3L242.5,35.3L242.5,133.3L121.3,133.3L121.3,35.3z" fill="#bfe1b7"/><text class="st2"><tspan x="148.3" y="52.3" class="st3">VARCHAR(32)</tspan><tspan x="163.3" y="66.3" class="st3">INT(11)</tspan><tspan x="163.3" y="80.3" class="st3">INT(11)</tspan><tspan x="149.3" y="94.3" class="st3">DATETIME(6)</tspan><tspan x="145.3" y="108.3" class="st3">VARCHAR(100)</tspan><tspan x="149.3" y="122.3" class="st3">DATETIME(6)</tspan></text></g></g><g transform="translate(667.77,117)" id="shape14"><path stroke="#91ab3f" d="M0,19.6L0,188" stroke-width="1.5" fill="none"/><path stroke="#91ab3f" d="M-4.9,0L0,9.8L4.9,0M0,9.8L0,0M0,9.8C2.7,9.8,4.9,12,4.9,14.7C4.9,17.4,2.7,19.6,0,19.6C-2.7,19.6,-4.9,17.4,-4.9,14.7C-4.9,12,-2.7,9.8,0,9.8" stroke-width="1.5" stroke-linejoin="round" fill="none" stroke-linecap="round"/><path stroke="#91ab3f" d="M-4.9,183.1L4.9,183.1" stroke-width="1.5" stroke-linejoin="round" fill="none" stroke-linecap="round"/></g><g transform="translate(174.79,586.58)" id="shape15"><path stroke="#91ab3f" d="M0,-19.6L0,-26L310.7,-26L310.7,-190.3L400.7,-190.3" stroke-width="1.5" fill="none"/><path stroke="#91ab3f" d="M4.9,0L0,-9.8L-4.9,0M0,-9.8L0,0M0,-9.8C-2.7,-9.8,-4.9,-12,-4.9,-14.7C-4.9,-17.4,-2.7,-19.6,0,-19.6C2.7,-19.6,4.9,-17.4,4.9,-14.7C4.9,-12,2.7,-9.8,0,-9.8" stroke-width="1.5" stroke-linejoin="round" fill="none" stroke-linecap="round"/><path stroke="#91ab3f" d="M395.8,-185.4L395.8,-195.2" stroke-width="1.5" stroke-linejoin="round" fill="none" stroke-linecap="round"/></g><g transform="translate(296.05,653.22)" id="shape16"><path stroke="#91ab3f" d="M19.6,0L274,0" stroke-width="1.5" fill="none"/><path stroke="#91ab3f" d="M0,4.9L9.8,0L0,-4.9M9.8,0L0,0M9.8,0C9.8,-2.7,12,-4.9,14.7,-4.9C17.4,-4.9,19.6,-2.7,19.6,0C19.6,2.7,17.4,4.9,14.7,4.9C12,4.9,9.8,2.7,9.8,0" stroke-width="1.5" stroke-linejoin="round" fill="none" stroke-linecap="round"/><path stroke="#91ab3f" d="M269.1,4.9L269.1,-4.9" stroke-width="1.5" stroke-linejoin="round" fill="none" stroke-linecap="round"/></g><g transform="translate(320.05,358.26)" id="shape17"><path d="M59,78L116,40L59,2L2,40L59,78z" fill-opacity="0.2" fill="#000000"/><g clip-path="url(#clip1)"><path stroke="url(#lg1)" d="M114,0L114,76L0,0z" stroke-width="2" fill="url(#lg1)"/></g><g clip-path="url(#clip1)"><path stroke="url(#lg2)" d="M114,76L0,76L0,0z" stroke-width="2" fill="url(#lg2)"/></g><path stroke="#0c61ae" d="M57,76L114,38L57,0L0,38L57,76z" fill="none"/><text class="st5"><tspan x="43" y="42.5">拥有</tspan></text></g><g transform="translate(843.45,358.26)" id="shape18"><path d="M59,78L116,40L59,2L2,40L59,78z" fill-opacity="0.2" fill="#000000"/><g clip-path="url(#clip2)"><path stroke="url(#lg3)" d="M114,0L114,76L0,0z" stroke-width="2" fill="url(#lg3)"/></g><g clip-path="url(#clip2)"><path stroke="url(#lg4)" d="M114,76L0,76L0,0z" stroke-width="2" fill="url(#lg4)"/></g><path stroke="#0c61ae" d="M57,76L114,38L57,0L0,38L57,76z" fill="none"/><text class="st5"><tspan x="43" y="42.5">拥有</tspan></text></g><g transform="translate(376.03,615.22)" id="shape19"><path d="M59,78L116,40L59,2L2,40L59,78z" fill-opacity="0.2" fill="#000000"/><g clip-path="url(#clip3)"><path stroke="url(#lg5)" d="M114,0L114,76L0,0z" stroke-width="2" fill="url(#lg5)"/></g><g clip-path="url(#clip3)"><path stroke="url(#lg6)" d="M114,76L0,76L0,0z" stroke-width="2" fill="url(#lg6)"/></g><path stroke="#0c61ae" d="M57,76L114,38L57,0L0,38L57,76z" fill="none"/><text class="st5"><tspan x="36" y="42.5">被共享</tspan></text></g><g transform="translate(854.79,615.22)" id="shape20"><path d="M59,78L116,40L59,2L2,40L59,78z" fill-opacity="0.2" fill="#000000"/><g clip-path="url(#clip4)"><path stroke="url(#lg7)" d="M114,0L114,76L0,0z" stroke-width="2" fill="url(#lg7)"/></g><g clip-path="url(#clip4)"><path stroke="url(#lg8)" d="M114,76L0,76L0,0z" stroke-width="2" fill="url(#lg8)"/></g><path stroke="#0c61ae" d="M57,76L114,38L57,0L0,38L57,76z" fill="none"/><text class="st5"><tspan x="43" y="42.5">回复</tspan></text></g><g transform="translate(678,756)" id="shape21"><path d="M59,78L116,40L59,2L2,40L59,78z" fill-opacity="0.2" fill="#000000"/><g clip-path="url(#clip5)"><path stroke="url(#lg9)" d="M114,0L114,76L0,0z" stroke-width="2" fill="url(#lg9)"/></g><g clip-path="url(#clip5)"><path stroke="url(#lg10)" d="M114,76L0,76L0,0z" stroke-width="2" fill="url(#lg10)"/></g><path stroke="#0c61ae" d="M57,76L114,38L57,0L0,38L57,76z" fill="none"/><text class="st5"><tspan x="43" y="42.5">评论</tspan></text></g><g transform="translate(335.05,524)" id="shape22"><path d="M59,78L116,40L59,2L2,40L59,78z" fill-opacity="0.2" fill="#000000"/><g clip-path="url(#clip6)"><path stroke="url(#lg11)" d="M114,0L114,76L0,0z" stroke-width="2" fill="url(#lg11)"/></g><g clip-path="url(#clip6)"><path stroke="url(#lg12)" d="M114,76L0,76L0,0z" stroke-width="2" fill="url(#lg12)"/></g><path stroke="#0c61ae" d="M57,76L114,38L57,0L0,38L57,76z" fill="none"/><text class="st5"><tspan x="43" y="42.5">共享</tspan></text></g><g transform="translate(610.77,173)" id="shape23"><path d="M59,78L116,40L59,2L2,40L59,78z" fill-opacity="0.2" fill="#000000"/><g clip-path="url(#clip7)"><path stroke="url(#lg13)" d="M114,0L114,76L0,0z" stroke-width="2" fill="url(#lg13)"/></g><g clip-path="url(#clip7)"><path stroke="url(#lg14)" d="M114,76L0,76L0,0z" stroke-width="2" fill="url(#lg14)"/></g><path stroke="#0c61ae" d="M57,76L114,38L57,0L0,38L57,76z" fill="none"/><text class="st5"><tspan x="8" y="35">添加、删除、管</tspan><tspan x="50" y="50">理</tspan></text></g></g></svg>